<svg id="Layer_1" data-name="Layer 1" xmlns="http://www.w3.org/2000/svg" viewBox="0 0 375.19 84.11">
  <defs>
    <style>
      .cls-1 {
        fill: #e6e6e6;
      }

      .cls-1, .cls-2, .cls-3, .cls-6, .cls-7 {
        fill-rule: evenodd;
      }

      .cls-2, .cls-4 {
        fill: #fff;
      }

      .cls-3, .cls-8 {
        fill: #369;
      }

      .cls-5 {
        fill: #57c6e3;
      }

      .cls-6 {
        fill: #9c3;
      }

      .cls-7 {
        fill: #693;
      }
    </style>
  </defs>
  <title>logo</title>
  <path class="cls-1" d="M37.43,47.05h0a4.55,4.55,0,0,1,0,6.39L12.08,78.79a4.55,4.55,0,0,1-6.39,0h0a4.54,4.54,0,0,1,0-6.4L31,47.05A4.54,4.54,0,0,1,37.43,47.05Z"/>
  <path class="cls-2" d="M5.15,77.22a4.53,4.53,0,0,1,1.3-3.63L31.8,48.24A4.44,4.44,0,0,1,34.21,47a4.49,4.49,0,0,1-1.3,3.63L7.57,76A4.46,4.46,0,0,1,5.15,77.22Z"/>
  <path class="cls-3" d="M38.18,45h.09l.6.6a6.58,6.58,0,0,1,0,9.29L13.53,80.23a6.58,6.58,0,0,1-9.29,0l-.6-.6v-.09a6.6,6.6,0,0,1-1.31-4A6.51,6.51,0,0,1,4.24,71h0L29.59,45.6a6.53,6.53,0,0,1,4.64-1.91,6.62,6.62,0,0,1,4,1.31ZM36.7,50.24a2.43,2.43,0,0,0-.7-1.72l0,0h0a2.49,2.49,0,0,0-3.5,0L7.13,73.84h0a2.49,2.49,0,0,0,0,3.5l0,0a2.48,2.48,0,0,0,3.47,0L36,52A2.44,2.44,0,0,0,36.7,50.24Z"/>
  <circle class="cls-4" cx="50.87" cy="33.6" r="29.14"/>
  <path class="cls-1" d="M69.79,15.83a26.26,26.26,0,1,1-37.14,0A26.25,26.25,0,0,1,69.79,15.83Z"/>
  <path class="cls-3" d="M72.92,11.55A31.19,31.19,0,1,1,50.87,2.42a31.09,31.09,0,0,1,22.05,9.13ZM70,14.44A27.1,27.1,0,1,0,78,33.6,27,27,0,0,0,70,14.44Z"/>
  <circle class="cls-5" cx="50.87" cy="33.6" r="19.64"/>
  <path class="cls-3" d="M66.2,18.27a21.68,21.68,0,1,1-15.33-6.35A21.65,21.65,0,0,1,66.2,18.27ZM68.46,33.6A17.6,17.6,0,1,0,63.31,46,17.53,17.53,0,0,0,68.46,33.6Z"/>
  <path class="cls-2" d="M48.56,47.74a13.83,13.83,0,0,1-9.2-23l1.94,1.79A13.84,13.84,0,0,0,42.85,44.3,13.66,13.66,0,0,0,48.56,47.74Z"/>
  <path class="cls-2" d="M43.08,21.35A2.17,2.17,0,0,1,46,21.13a1.84,1.84,0,0,1-.36,2.67,2.16,2.16,0,0,1-2.87.23A1.84,1.84,0,0,1,43.08,21.35Z"/>
  <g>
    <path class="cls-2" d="M84.83,49.07c-3.11,6-8.44,10.35-14.32,13.47l-1.3.69-1.29-.69C62,59.42,56.7,55.08,53.59,49.07c-4-7.67-3.32-16.14-.51-24.08l.65-1.85h31L85.34,25c2.81,7.94,3.47,16.41-.51,24.08ZM69.21,57c4.36-2.51,8.37-5.89,10.72-10.41,2.93-5.66,2.6-11.93.81-17.87H57.68c-1.79,5.94-2.12,12.21.81,17.87C60.84,51.06,64.85,54.44,69.21,57Z"/>
    <path class="cls-6" d="M69.21,60.1c10.57-5.6,20-15.78,13.53-34.2H55.68C49.17,44.32,58.65,54.5,69.21,60.1Z"/>
    <path class="cls-7" d="M69.21,60.1c10.57-5.6,20-15.78,13.53-34.2H69.21Z"/>
    <path class="cls-3" d="M69.21,58.13C73.92,55.5,78.3,51.91,80.84,47s3.27-11.24.66-19.37H56.92C54.31,35.77,55,42.1,57.58,47S64.5,55.5,69.21,58.13ZM83.92,48.6c-3.07,5.92-8.34,10.09-13.89,13l-.82.43-.81-.43c-5.55-3-10.83-7.12-13.9-13S50.61,35.05,54,25.33l.42-1.16H84l.41,1.16C87.82,35.05,87,42.66,83.92,48.6Z"/>
    <path class="cls-2" d="M67.38,31.51H71a1,1,0,0,1,1,1v5h5a1,1,0,0,1,1,1v3.66a1,1,0,0,1-1,1H72v5a1,1,0,0,1-1,1H67.38a1,1,0,0,1-1-1v-5h-5a1,1,0,0,1-1-1V38.53a1,1,0,0,1,1-1h5v-5A1,1,0,0,1,67.38,31.51Z"/>
  </g>
  <g>
    <path class="cls-5" d="M113.74,37.52H107.4v8.63H103V24.05H115.7c.36,0,.76,0,1.21.06a8.83,8.83,0,0,1,1.37.25,6.8,6.8,0,0,1,1.42.57,5.44,5.44,0,0,1,1.34,1,5.32,5.32,0,0,1,1.46,2.5,10.82,10.82,0,0,1,.33,2.5,9.45,9.45,0,0,1-.23,2,5,5,0,0,1-1,2,6.7,6.7,0,0,1-3.09,2.17l5.26,9h-4.92Zm1.67-4.25a6.51,6.51,0,0,0,1.16-.11,1.94,1.94,0,0,0,1.05-.56,2.17,2.17,0,0,0,.54-.9,3.46,3.46,0,0,0,.17-1.06,2.36,2.36,0,0,0-.3-1.27,2,2,0,0,0-.62-.69,2.1,2.1,0,0,0-1.09-.38c-.41,0-.83,0-1.25,0H107.4v5Z"/>
    <path class="cls-5" d="M126.79,24.05h17.77v4.21H131.17v4.05h8.13v4.21h-8.13v5.42h14.22v4.21h-18.6Z"/>
    <path class="cls-5" d="M148.56,46.15V24.05h9.64a13.19,13.19,0,0,1,4.77.83,10.61,10.61,0,0,1,3.65,2.32,10.17,10.17,0,0,1,2.31,3.52,11.74,11.74,0,0,1,.82,4.42,12.08,12.08,0,0,1-.79,4.4A10,10,0,0,1,166.68,43a10.47,10.47,0,0,1-3.63,2.29,13.23,13.23,0,0,1-4.85.83ZM153,28.26V41.94h5.22a6.93,6.93,0,0,0,5.31-1.88,6.93,6.93,0,0,0,1.78-5,6.78,6.78,0,0,0-1.86-4.92,6.94,6.94,0,0,0-5.23-1.92Z"/>
    <path class="cls-8" d="M174.05,46.15V23.67h12.89a7.67,7.67,0,0,1,5.16,1.63A5.57,5.57,0,0,1,194,29.76a6.38,6.38,0,0,1-1.82,4.75,6.6,6.6,0,0,1-4.86,1.81H176.84v9.83Zm2.79-12.46h9.92a4.74,4.74,0,0,0,3.2-.94A3.4,3.4,0,0,0,191.05,30,3.5,3.5,0,0,0,190,27.25a4.38,4.38,0,0,0-3.06-1H176.84Z"/>
    <path class="cls-8" d="M198.61,46.15V23.67h2.79v19.9h14.68v2.58Z"/>
    <path class="cls-8" d="M216.08,46.15l11-22.48h2.32l11.14,22.48h-3l-3.05-6H222.05l-3,6Zm7.25-8.67h9.9l-5-10Z"/>
    <path class="cls-8" d="M244,46.15V23.67h1.46L260,40.47V23.67h2.81V46.15h-1.42l-14.64-16.8v16.8Z"/>
    <path class="cls-8" d="M269.53,46.15V23.67h17.68v2.59H272.32v6.6h9v2.58h-9v8.13h15.81v2.58Z"/>
    <path class="cls-8" d="M290.16,42.77l1.63-2.42a18.94,18.94,0,0,0,5,2.83,14.36,14.36,0,0,0,5.1,1,8.75,8.75,0,0,0,5.06-1.33,4,4,0,0,0,1.95-3.4,3.27,3.27,0,0,0-1.4-2.71,7.18,7.18,0,0,0-3.86-1.28q-.59-.06-1.71-.12-5.53-.39-7.55-1.3a6,6,0,0,1-2.39-2,4.63,4.63,0,0,1-.81-2.68,5.32,5.32,0,0,1,2.42-4.46,10.58,10.58,0,0,1,6.3-1.75,17.09,17.09,0,0,1,5.54.93,19,19,0,0,1,5.21,2.74L309,29.17a15.58,15.58,0,0,0-4.37-2.51,13.38,13.38,0,0,0-4.71-.85,8.06,8.06,0,0,0-4.2,1,2.87,2.87,0,0,0-1.65,2.47,2.16,2.16,0,0,0,.27,1.08,3,3,0,0,0,.81.92q1.38,1,6,1.32c1.41.08,2.5.17,3.28.27a9.31,9.31,0,0,1,5.41,2.2,5.77,5.77,0,0,1,2,4.45,6.22,6.22,0,0,1-2.74,5.2,11.73,11.73,0,0,1-7.18,2,19.34,19.34,0,0,1-6.24-1A18.75,18.75,0,0,1,290.16,42.77Z"/>
    <path class="cls-8" d="M320.79,43a1.51,1.51,0,0,1,1.19.53,1.93,1.93,0,0,1,.48,1.36,1.84,1.84,0,0,1-.48,1.31,1.53,1.53,0,0,1-1.19.52,1.58,1.58,0,0,1-1.22-.52,1.8,1.8,0,0,1-.49-1.31,1.93,1.93,0,0,1,.5-1.35A1.59,1.59,0,0,1,320.79,43Z"/>
    <path class="cls-8" d="M349,39l2.24,1.67A11.26,11.26,0,0,1,347,45.17a11.85,11.85,0,0,1-6.11,1.57,11.22,11.22,0,0,1-8.34-3.33A11.5,11.5,0,0,1,329.3,35a11.52,11.52,0,0,1,3.3-8.46,11.24,11.24,0,0,1,8.33-3.33,11.89,11.89,0,0,1,5.68,1.37,11.05,11.05,0,0,1,4.18,3.89l-2.34,1.67A7.7,7.7,0,0,0,345.39,27a8.84,8.84,0,0,0-4.46-1.14,8.33,8.33,0,0,0-6.27,2.6A9.1,9.1,0,0,0,332.17,35a9.07,9.07,0,0,0,2.49,6.56,8.32,8.32,0,0,0,6.27,2.59,8.57,8.57,0,0,0,4.7-1.31A9.82,9.82,0,0,0,349,39Z"/>
    <path class="cls-8" d="M356.28,46.15V23.67h2.79v19.9h14.69v2.58Z"/>
  </g>
  <g>
    <path class="cls-8" d="M123.41,56.91l.93.69a4.55,4.55,0,0,1-1.76,1.87,4.87,4.87,0,0,1-2.53.66,4.66,4.66,0,0,1-3.46-1.38,5.18,5.18,0,0,1,0-7,4.67,4.67,0,0,1,3.46-1.38,4.93,4.93,0,0,1,2.36.57,4.6,4.6,0,0,1,1.73,1.61l-1,.69a3.24,3.24,0,0,0-1.27-1.3,3.62,3.62,0,0,0-1.85-.48,3.46,3.46,0,0,0-2.61,1.08,4.12,4.12,0,0,0,0,5.45A3.49,3.49,0,0,0,120.05,59a3.57,3.57,0,0,0,2-.54A4.08,4.08,0,0,0,123.41,56.91Z"/>
    <path class="cls-8" d="M132.06,60.11A4.63,4.63,0,0,1,128.89,59a3.51,3.51,0,0,1-1.24-2.74,3.45,3.45,0,0,1,1.24-2.73,5.22,5.22,0,0,1,6.36,0,3.44,3.44,0,0,1,1.24,2.73A3.49,3.49,0,0,1,135.25,59,4.69,4.69,0,0,1,132.06,60.11Zm0-1a3.45,3.45,0,0,0,2.36-.79,2.62,2.62,0,0,0,0-4,3.91,3.91,0,0,0-4.7,0,2.52,2.52,0,0,0-.91,2,2.49,2.49,0,0,0,.91,2A3.42,3.42,0,0,0,132.06,59.06Z"/>
    <path class="cls-8" d="M140.35,59.89V52.67h.94l3,4.22,3-4.22h.93v7.22H147V54.7l-2.77,4-2.77-4v5.19Z"/>
    <path class="cls-8" d="M153.79,56.73v3.16h-1.13V52.67h5.24a2.55,2.55,0,0,1,1.74.53,1.81,1.81,0,0,1,.62,1.48,2,2,0,0,1-.61,1.48,2.33,2.33,0,0,1-1.63.57Zm0-1h4.11a1.37,1.37,0,0,0,.89-.26,1,1,0,0,0,0-1.44,1.27,1.27,0,0,0-.85-.26h-4.16Z"/>
    <path class="cls-8" d="M161.55,59.89l3.67-7.22h.71l3.7,7.22h-1.21l-.93-1.84h-3.82l-.93,1.84Zm2.61-2.79H167l-1.41-2.77Z"/>
    <path class="cls-8" d="M173.88,56.73v3.16h-1.13V52.68h5a2.56,2.56,0,0,1,1.73.54,1.82,1.82,0,0,1,.63,1.48,2,2,0,0,1-.5,1.33,2.15,2.15,0,0,1-1.29.69l2,3.17h-1.23l-2-3.16Zm0-1h3.84a1.37,1.37,0,0,0,.89-.26,1,1,0,0,0,0-1.45,1.43,1.43,0,0,0-.89-.25h-3.84Z"/>
    <path class="cls-8" d="M182.46,59.89l3.67-7.22h.71l3.7,7.22h-1.21l-.94-1.84h-3.81l-.93,1.84Zm2.61-2.79h2.82l-1.4-2.77Z"/>
    <path class="cls-8" d="M200.55,56.73v3.16h-1.13V52.67h5.25a2.54,2.54,0,0,1,1.73.53,1.81,1.81,0,0,1,.62,1.48,2,2,0,0,1-.61,1.48,2.31,2.31,0,0,1-1.63.57Zm0-1h4.12a1.36,1.36,0,0,0,.88-.26.87.87,0,0,0,.31-.72.89.89,0,0,0-.3-.72,1.26,1.26,0,0,0-.84-.26h-4.17Z"/>
    <path class="cls-8" d="M210.64,59.89V52.67h1.13v6.18h5.36v1Z"/>
    <path class="cls-8" d="M219.06,59.89l3.67-7.22h.71l3.7,7.22h-1.2L225,58.05h-3.81l-.93,1.84Zm2.62-2.79h2.82l-1.4-2.77Z"/>
    <path class="cls-8" d="M230.26,59.89V52.67h.59l4.59,5.07V52.67h1.11v7.22H236l-4.58-5.06v5.06Z"/>
    <path class="cls-8" d="M241,59.89V52.67h6.77v1h-5.63v1.8h3.7v1h-3.7v2.29h5.94v1Z"/>
    <path class="cls-8" d="M251.14,59l.55-.94a6.55,6.55,0,0,0,1.62.78,5.76,5.76,0,0,0,1.68.27,2.79,2.79,0,0,0,1.56-.39,1.18,1.18,0,0,0,.59-1,1,1,0,0,0-.54-.92,3.89,3.89,0,0,0-1.71-.33,6,6,0,0,1-2.7-.46,1.51,1.51,0,0,1-.74-1.42,1.75,1.75,0,0,1,.81-1.5,3.7,3.7,0,0,1,2.17-.57,6.37,6.37,0,0,1,1.8.26,7,7,0,0,1,1.69.78l-.57.94a5.92,5.92,0,0,0-1.45-.71,5.08,5.08,0,0,0-1.49-.24,2.64,2.64,0,0,0-1.32.28.86.86,0,0,0-.5.76.7.7,0,0,0,.51.68,5.29,5.29,0,0,0,1.74.2,4.69,4.69,0,0,1,2.6.59,1.92,1.92,0,0,1,.88,1.73,2,2,0,0,1-.89,1.7,3.71,3.71,0,0,1-2.31.67,7.42,7.42,0,0,1-2.08-.3A7.11,7.11,0,0,1,251.14,59Z"/>
    <path class="cls-8" d="M271.34,52.67a4,4,0,0,1,2.85,1,3.73,3.73,0,0,1,0,5.23,4.09,4.09,0,0,1-2.87,1h-3.21V52.67Zm0,1h-2.08v5.14h2.08a2.83,2.83,0,0,0,2-.69,2.46,2.46,0,0,0,.74-1.88,2.4,2.4,0,0,0-.76-1.85A2.79,2.79,0,0,0,271.35,53.71Z"/>
    <path class="cls-8" d="M279.08,59.89V52.67h6.77v1h-5.64v1.8h3.7v1h-3.7v2.29h6v1Z"/>
    <path class="cls-8" d="M295.57,59.89V52.65h1.15v7.24Z"/>
    <path class="cls-8" d="M300.61,59l.55-.94a6.62,6.62,0,0,0,1.63.78,5.66,5.66,0,0,0,1.68.27,2.76,2.76,0,0,0,1.55-.39,1.17,1.17,0,0,0,.6-1,1,1,0,0,0-.55-.92,3.84,3.84,0,0,0-1.7-.33,6,6,0,0,1-2.71-.46,1.51,1.51,0,0,1-.73-1.42,1.75,1.75,0,0,1,.81-1.5,3.66,3.66,0,0,1,2.16-.57,6.49,6.49,0,0,1,1.81.26,7.09,7.09,0,0,1,1.68.78l-.56.94a6,6,0,0,0-1.46-.71,5,5,0,0,0-1.48-.24,2.64,2.64,0,0,0-1.32.28.86.86,0,0,0-.5.76.71.71,0,0,0,.5.68,5.41,5.41,0,0,0,1.75.2,4.72,4.72,0,0,1,2.6.59,1.92,1.92,0,0,1,.88,1.73,2.07,2.07,0,0,1-.89,1.7,3.74,3.74,0,0,1-2.31.67,7.49,7.49,0,0,1-2.09-.3A7.25,7.25,0,0,1,300.61,59Z"/>
    <path class="cls-8" d="M310.45,59.89l3.67-7.22h.71l3.7,7.22h-1.21l-.94-1.84h-3.81l-.93,1.84Zm2.61-2.79h2.83l-1.41-2.77Z"/>
    <path class="cls-8" d="M322.78,56.73v3.16h-1.13V52.67h5.25a2.54,2.54,0,0,1,1.73.53,1.81,1.81,0,0,1,.62,1.48,2,2,0,0,1-.61,1.48,2.31,2.31,0,0,1-1.63.57Zm0-1h4.12a1.36,1.36,0,0,0,.88-.26.87.87,0,0,0,.31-.72.89.89,0,0,0-.3-.72,1.26,1.26,0,0,0-.84-.26h-4.17Z"/>
    <path class="cls-8" d="M334,56.73v3.16h-1.13V52.68h5a2.58,2.58,0,0,1,1.73.54,1.84,1.84,0,0,1,.62,1.48,2,2,0,0,1-.49,1.33,2.15,2.15,0,0,1-1.29.69l2,3.17h-1.22l-2-3.16Zm0-1h3.84a1.39,1.39,0,0,0,.89-.26,1,1,0,0,0,0-1.45,1.45,1.45,0,0,0-.89-.25H334Z"/>
    <path class="cls-8" d="M344.28,59.89V52.67h6.77v1h-5.64v1.8h3.7v1h-3.7v2.29h5.95v1Z"/>
    <path class="cls-8" d="M354.37,59l.55-.94a6.62,6.62,0,0,0,1.63.78,5.66,5.66,0,0,0,1.68.27,2.76,2.76,0,0,0,1.55-.39,1.16,1.16,0,0,0,.59-1,1,1,0,0,0-.54-.92,3.87,3.87,0,0,0-1.7-.33,6,6,0,0,1-2.71-.46,1.51,1.51,0,0,1-.73-1.42,1.77,1.77,0,0,1,.8-1.5,3.7,3.7,0,0,1,2.17-.57,6.49,6.49,0,0,1,1.81.26,7.09,7.09,0,0,1,1.68.78l-.56.94a6,6,0,0,0-1.46-.71,5,5,0,0,0-1.49-.24,2.63,2.63,0,0,0-1.31.28.84.84,0,0,0-.5.76.69.69,0,0,0,.5.68,5.41,5.41,0,0,0,1.75.2,4.72,4.72,0,0,1,2.6.59,1.94,1.94,0,0,1,.88,1.73,2.07,2.07,0,0,1-.89,1.7,3.76,3.76,0,0,1-2.32.67,7.47,7.47,0,0,1-2.08-.3A7.25,7.25,0,0,1,354.37,59Z"/>
  </g>
</svg>
